<?xml version="1.0" encoding="UTF-8"?>
<svg id="Calque_1" xmlns="http://www.w3.org/2000/svg" version="1.1" viewBox="0 0 198.2 60.7">
  <!-- Generator: Adobe Illustrator 29.7.0, SVG Export Plug-In . SVG Version: 2.1.1 Build 138)  -->
  <defs>
    <style>
      .st0 {
        fill: #ffe8d6;
      }
    </style>
  </defs>
  <g id="Download_on_the_App_Store_Badge_FR_RGB_wht_100217">
    <g id="Groupe_213">
      <g id="_Group_">
        <g id="_Group_2">
          <g id="_Group_3">
            <path id="_Path_" class="st0" d="M38.3,30.2c0-2.8,1.5-5.4,3.9-6.9-1.5-2.2-4-3.5-6.6-3.6-2.8-.3-5.5,1.7-6.9,1.7s-3.6-1.6-6-1.6c-3.1,0-5.9,1.8-7.4,4.5-3.2,5.5-.8,13.7,2.2,18.1,1.5,2.2,3.3,4.6,5.7,4.5,2.3,0,3.1-1.5,5.9-1.5s3.5,1.5,5.9,1.4c2.5,0,4-2.2,5.5-4.4,1.1-1.6,1.9-3.3,2.5-5.1-2.9-1.2-4.8-4.1-4.8-7.3h0Z"/>
            <path id="_Path_2" class="st0" d="M33.8,16.8c1.3-1.6,2-3.7,1.8-5.8-2,.2-3.9,1.2-5.3,2.7-1.3,1.5-2,3.5-1.9,5.6,2.1,0,4-.9,5.3-2.5Z"/>
          </g>
        </g>
      </g>
    </g>
    <g id="_Group_4">
      <g id="Groupe_214">
        <path id="Tracé_401" class="st0" d="M55.2,22v-8.1h-3v-1.3h7.4v1.3h-3v8.1h-1.5Z"/>
        <path id="Tracé_402" class="st0" d="M66.5,20c-.4,1.4-1.7,2.2-3.1,2.1-1.8,0-3.3-1.4-3.3-3.2,0-.2,0-.4,0-.5-.2-1.8,1-3.5,2.8-3.7.2,0,.3,0,.5,0,2,0,3.2,1.4,3.2,3.6v.5h-5c0,1.1.7,2,1.7,2.1,0,0,.1,0,.2,0,.7,0,1.4-.3,1.7-.9h1.4ZM61.5,17.7h3.6c0-.9-.6-1.8-1.6-1.9,0,0-.1,0-.2,0-1,0-1.8.8-1.9,1.8,0,0,0,0,0,0h0ZM62.5,13.6l1.6-2.3h1.7l-1.8,2.3h-1.5Z"/>
        <path id="Tracé_403" class="st0" d="M68.5,12h1.4v9.9h-1.4v-9.9Z"/>
        <path id="Tracé_404" class="st0" d="M78.3,20c-.4,1.4-1.7,2.2-3.1,2.1-1.8,0-3.3-1.4-3.3-3.2,0-.2,0-.4,0-.5-.2-1.8,1-3.5,2.8-3.7.2,0,.3,0,.5,0,2,0,3.2,1.4,3.2,3.6v.5h-5c0,1.1.7,2,1.7,2.1,0,0,.1,0,.2,0,.7,0,1.4-.3,1.7-.9h1.4ZM73.3,17.7h3.6c0-1-.6-1.8-1.6-1.8,0,0-.1,0-.2,0-1,0-1.8.8-1.9,1.8,0,0,0,0,0,0h0ZM74.3,13.6l1.6-2.3h1.7l-1.8,2.3h-1.5Z"/>
        <path id="Tracé_405" class="st0" d="M85,17.1c-.2-.8-.9-1.3-1.7-1.2-1.2,0-1.9.9-1.9,2.4s.7,2.5,1.9,2.5c.8,0,1.5-.4,1.7-1.2h1.4c-.2,1.5-1.5,2.6-3.1,2.4-1.8,0-3.3-1.4-3.4-3.2,0-.2,0-.4,0-.6-.2-1.8,1-3.4,2.8-3.7.2,0,.4,0,.5,0,1.5-.1,2.9,1,3.1,2.5h-1.4Z"/>
        <path id="Tracé_406" class="st0" d="M88.2,12h1.4v3.9h.1c.4-.8,1.3-1.4,2.2-1.3,1.3,0,2.4.9,2.5,2.2,0,.1,0,.3,0,.4v4.6h-1.4v-4.3c0-1.1-.5-1.7-1.5-1.7-.9,0-1.7.6-1.8,1.5,0,0,0,.2,0,.3v4.2h-1.4v-9.9Z"/>
        <path id="Tracé_407" class="st0" d="M96.1,19.9c0-1.3,1-2,2.7-2.1h1.9v-.7c0-.8-.5-1.2-1.5-1.2s-1.3.3-1.5.8h-1.4c.1-1.2,1.3-2,2.9-2s2.8.9,2.8,2.4v4.9h-1.4v-1h-.1c-.5.7-1.3,1.2-2.1,1.1-1.2.1-2.2-.7-2.4-1.9,0,0,0-.1,0-.2h0ZM100.7,19.3v-.6h-1.7c-1,.2-1.4.5-1.4,1.1s.6,1,1.3,1c.9,0,1.8-.6,1.8-1.5,0,0,0,0,0,0h0Z"/>
        <path id="Tracé_408" class="st0" d="M104.3,14.8h1.4v1.1h.1c.3-.8,1.1-1.3,1.9-1.2.2,0,.4,0,.6,0v1.4c-.3,0-.5,0-.8,0-.9,0-1.7.6-1.8,1.5,0,0,0,.1,0,.2v4.2h-1.4v-7.2Z"/>
        <path id="Tracé_409" class="st0" d="M109.7,22.7h1.4c.1.5.7.9,1.7.9s1.9-.6,1.9-1.5v-1.4h-.1c-.5.8-1.3,1.2-2.2,1.2-1.8,0-3-1.4-3-3.6s1.1-3.6,3-3.6c.9,0,1.8.5,2.2,1.3h.1v-1.1h1.4v7.2c0,1.6-1.3,2.7-3.3,2.7s-2.9-.8-3.1-2ZM114.7,18.3c0-1.4-.7-2.3-1.9-2.3s-1.9.9-1.9,2.3.7,2.3,1.9,2.3,1.9-.9,1.9-2.3Z"/>
        <path id="Tracé_410" class="st0" d="M124.4,20c-.4,1.4-1.7,2.2-3.1,2.1-1.8,0-3.3-1.4-3.3-3.2,0-.2,0-.4,0-.5-.2-1.8,1-3.5,2.8-3.7.2,0,.3,0,.5,0,2,0,3.2,1.4,3.2,3.6v.5h-5.1c0,1.1.7,2,1.7,2.1,0,0,.1,0,.2,0,.7,0,1.4-.3,1.7-.9h1.4ZM119.4,17.7h3.6c0-1-.6-1.8-1.6-1.8,0,0-.1,0-.2,0-1,0-1.8.8-1.8,1.8,0,0,0,0,0,0h0Z"/>
        <path id="Tracé_411" class="st0" d="M126.3,14.8h1.4v1.1h.1c.3-.8,1.1-1.3,1.9-1.2.2,0,.4,0,.6,0v1.4c-.3,0-.5,0-.8,0-.9,0-1.7.6-1.8,1.5,0,0,0,.1,0,.2v4.2h-1.4v-7.2Z"/>
        <path id="Tracé_412" class="st0" d="M135.5,18.4c0-2.3,1.2-3.7,3-3.7.9,0,1.8.4,2.2,1.3h.1v-3.9h1.4v9.9h-1.4v-1.1h-.1c-.5.8-1.3,1.3-2.2,1.2-1.8,0-3-1.4-3-3.7ZM136.9,18.4c0,1.5.7,2.4,1.9,2.4s1.9-.9,1.9-2.4-.7-2.4-1.9-2.4-1.9.9-1.9,2.4Z"/>
        <path id="Tracé_413" class="st0" d="M144,19.9c0-1.3,1-2,2.7-2.1h1.9v-.7c0-.8-.5-1.2-1.5-1.2s-1.3.3-1.5.8h-1.4c.1-1.2,1.3-2,2.9-2s2.8.9,2.8,2.4v4.9h-1.4v-1h-.1c-.5.7-1.3,1.2-2.1,1.1-1.2.1-2.2-.7-2.4-1.9,0,0,0-.1,0-.2h0ZM148.6,19.3v-.6h-1.7c-1,.2-1.4.5-1.4,1.1s.6,1,1.3,1c.9,0,1.8-.6,1.8-1.5,0,0,0,0,0,0h0Z"/>
        <path id="Tracé_414" class="st0" d="M152.2,14.8h1.4v1.1h0c.4-.8,1.2-1.3,2.1-1.3,1.3,0,2.4.9,2.5,2.1,0,.2,0,.3,0,.5v4.6h-1.4v-4.3c0-1.1-.5-1.7-1.5-1.7-.9,0-1.7.7-1.7,1.6,0,0,0,.2,0,.3v4.2h-1.4v-7.1Z"/>
        <path id="Tracé_415" class="st0" d="M163.1,14.7c1.6,0,2.7.7,2.8,2h-1.4c-.1-.5-.6-.9-1.4-.9s-1.4.4-1.4.9.4.7,1.1.9l1.2.3c1.4.3,2,.9,2,2s-1.3,2.2-3,2.2-2.8-.8-2.9-2h1.4c.3.6.9,1,1.6.9.9,0,1.5-.4,1.5-1s-.3-.7-1.1-.9l-1.2-.3c-1.4-.3-2-.9-2-2,0-1.3,1.2-2.2,2.8-2.2Z"/>
      </g>
    </g>
    <g id="Groupe_215">
      <path id="Tracé_416" class="st0" d="M54.5,27.3h3v19.7h-3v-19.7Z"/>
      <path id="Tracé_417" class="st0" d="M61,34.5l1.6-7.2h2.9l-1.9,7.2h-2.5Z"/>
      <path id="Tracé_418" class="st0" d="M76.7,41.7h-7.5l-1.8,5.3h-3.2l7.1-19.7h3.3l7.1,19.7h-3.2l-1.8-5.3ZM69.9,39.3h6l-2.9-8.7h0l-2.9,8.7Z"/>
      <path id="Tracé_419" class="st0" d="M97.1,39.9c0,4.5-2.4,7.3-6,7.3-1.9,0-3.6-.9-4.5-2.5h0v7.1h-3v-19.1h2.9v2.4h0c.9-1.6,2.7-2.6,4.6-2.5,3.6,0,6.1,2.9,6.1,7.3ZM94,39.9c0-2.9-1.5-4.8-3.8-4.8s-3.8,2-3.8,4.8,1.5,4.8,3.8,4.8,3.8-1.9,3.8-4.8Z"/>
      <path id="Tracé_420" class="st0" d="M112.9,39.9c0,4.5-2.4,7.3-6,7.3-1.9,0-3.6-.9-4.5-2.5h0v7.1h-3v-19.1h2.9v2.4h0c.9-1.6,2.7-2.6,4.6-2.5,3.6,0,6.1,2.9,6.1,7.3ZM109.9,39.9c0-2.9-1.5-4.8-3.8-4.8s-3.8,2-3.8,4.8,1.5,4.8,3.8,4.8,3.8-1.9,3.8-4.8Z"/>
      <path id="Tracé_421" class="st0" d="M123.4,41.5c.2,2,2.1,3.2,4.7,3.2s4.3-1.3,4.3-3-1.1-2.4-3.6-3.1l-2.6-.6c-3.6-.9-5.3-2.6-5.3-5.3s3-5.7,7.2-5.7,7,2.3,7.1,5.7h-3c-.2-2-1.8-3.2-4.2-3.2s-4,1.2-4,3,1,2.2,3.6,2.8l2.2.5c4,1,5.7,2.6,5.7,5.5s-2.9,6-7.6,6-7.3-2.3-7.5-5.8h3Z"/>
      <path id="Tracé_422" class="st0" d="M141.8,29.3v3.4h2.7v2.3h-2.7v7.9c0,1.2.5,1.8,1.7,1.8.3,0,.6,0,1,0v2.3c-.5.1-1.1.1-1.6.1-2.9,0-4-1.1-4-3.9v-8.2h-2.1v-2.3h2.1v-3.4h3Z"/>
      <path id="Tracé_423" class="st0" d="M146.2,39.9c0-4.5,2.7-7.4,6.8-7.4s6.8,2.8,6.8,7.4-2.6,7.4-6.8,7.4-6.8-2.8-6.8-7.4ZM156.8,39.9c0-3.1-1.4-4.9-3.8-4.9s-3.8,1.8-3.8,4.9,1.4,4.9,3.8,4.9,3.8-1.8,3.8-4.9h0Z"/>
      <path id="Tracé_424" class="st0" d="M162.2,32.7h2.8v2.4h0c.4-1.6,1.8-2.7,3.5-2.6.3,0,.7,0,1,.1v2.8c-.4-.1-.9-.2-1.3-.2-1.6,0-3,1.2-3.1,2.9,0,.2,0,.3,0,.5v8.5h-3v-14.4Z"/>
      <path id="Tracé_425" class="st0" d="M183.2,42.8c-.4,2.6-2.9,4.4-6.2,4.4s-6.8-2.8-6.8-7.3,2.6-7.4,6.7-7.4,6.5,2.7,6.5,7.1v1h-10.2v.2c-.2,2.1,1.3,3.9,3.4,4.1.2,0,.3,0,.5,0,1.4.1,2.8-.7,3.3-2h2.8ZM173.2,38.5h7.2c.1-1.9-1.4-3.5-3.3-3.6,0,0-.2,0-.3,0-2,0-3.6,1.6-3.7,3.6,0,0,0,0,0,0h0Z"/>
    </g>
  </g>
</svg>