<?xml version="1.0" encoding="UTF-8" standalone="no"?>
<!DOCTYPE svg PUBLIC "-//W3C//DTD SVG 1.1//EN" "http://www.w3.org/Graphics/SVG/1.1/DTD/svg11.dtd">
<svg width="100%" height="100%" viewBox="0 0 1200 350" version="1.1" xmlns="http://www.w3.org/2000/svg" xmlns:xlink="http://www.w3.org/1999/xlink" xml:space="preserve" xmlns:serif="http://www.serif.com/" style="fill-rule:evenodd;clip-rule:evenodd;stroke-linejoin:round;stroke-miterlimit:2;">
    <g transform="matrix(5.24346,0,0,5.24346,-23.6857,12.136)">
        <path d="M175.097,19.898L176.254,19.898L176.254,38.846C176.254,40.587 175.89,42.023 175.161,43.154C174.443,44.279 173.5,45.126 172.332,45.683C171.159,46.24 169.878,46.529 168.495,46.562C167.263,46.562 166.063,46.315 164.895,45.833C163.721,45.345 162.655,44.718 161.701,43.947L162.408,42.768C163.276,43.422 164.198,43.974 165.173,44.418C166.159,44.874 167.209,45.104 168.324,45.104C170.151,45.104 171.651,44.558 172.825,43.475C173.993,42.404 174.583,40.871 174.583,38.888L174.583,35.909C173.811,36.584 172.932,37.083 171.946,37.41C170.971,37.736 169.958,37.903 168.903,37.903C167.317,37.903 165.827,37.538 164.444,36.809C163.057,36.07 161.942,35.009 161.101,33.637C160.254,32.266 159.836,30.669 159.836,28.836C159.836,26.88 160.249,25.203 161.079,23.799C161.905,22.401 163.014,21.324 164.402,20.563C165.784,19.791 167.284,19.405 168.903,19.405C170.071,19.405 171.137,19.609 172.096,20.006C173.066,20.391 173.945,20.884 174.733,21.485L175.097,19.898ZM135.631,19.898L137.517,19.898L130.165,37.538C129.892,38.106 129.533,38.824 129.094,39.682C128.665,40.539 128.15,41.396 127.55,42.254C126.95,43.111 126.291,43.872 125.578,44.547C124.877,45.233 124.142,45.704 123.371,45.962L122.814,44.311C123.714,44.038 124.603,43.352 125.493,42.254C126.393,41.15 127.229,39.746 128,38.031L120.434,19.898L122.363,19.898L129.008,35.866L135.631,19.898ZM196.097,37.65C195.794,37.499 195.493,37.341 195.216,37.131C194.787,36.804 194.45,36.37 194.208,35.823C193.448,36.424 192.563,36.927 191.551,37.324C190.549,37.71 189.45,37.903 188.25,37.903C186.632,37.903 185.131,37.538 183.749,36.809C182.361,36.07 181.252,35.02 180.427,33.659C179.596,32.303 179.184,30.679 179.184,28.793C179.184,26.864 179.602,25.203 180.448,23.799C181.289,22.401 182.399,21.324 183.77,20.563C185.142,19.791 186.632,19.405 188.25,19.405C189.364,19.405 190.399,19.593 191.358,19.963C192.328,20.322 193.233,20.831 194.08,21.485L194.444,19.898L195.602,19.898L195.602,34.066C195.602,34.666 195.773,35.197 196.116,35.652C196.449,36.07 197.149,36.628 197.615,36.867C199.672,37.558 199.652,37.29 199.55,38.529C199.534,38.733 197.627,38.417 196.097,37.65ZM15.986,37.945C14.598,37.945 13.264,37.715 11.978,37.26C10.703,36.788 9.711,36.188 8.999,35.459L9.706,34.387C10.488,35.02 11.41,35.539 12.471,35.952C13.543,36.354 14.7,36.552 15.943,36.552C17.315,36.552 18.483,36.231 19.458,35.588C20.444,34.934 20.937,34.109 20.937,33.123C20.937,32.255 20.648,31.553 20.08,31.022C19.506,30.497 18.772,30.069 17.872,29.736C16.972,29.41 16.007,29.093 14.979,28.793C13.961,28.493 13.007,28.15 12.107,27.765C11.206,27.368 10.467,26.859 9.899,26.243C9.326,25.632 9.042,24.823 9.042,23.821C9.042,22.98 9.342,22.229 9.942,21.57C10.542,20.917 11.324,20.402 12.299,20.027C13.285,19.641 14.362,19.448 15.536,19.448C16.951,19.448 18.269,19.695 19.501,20.177C20.728,20.665 21.719,21.265 22.48,21.977L21.709,23.071C20.948,22.401 20.037,21.865 18.965,21.463C17.904,21.067 16.763,20.863 15.536,20.863C14.207,20.863 13.071,21.158 12.128,21.742C11.185,22.331 10.713,23.022 10.713,23.821C10.713,24.582 10.997,25.187 11.571,25.643C12.139,26.087 12.878,26.468 13.778,26.779C14.679,27.095 15.632,27.411 16.65,27.722C17.679,28.038 18.644,28.408 19.544,28.836C20.444,29.254 21.178,29.801 21.752,30.487C22.32,31.162 22.609,32.04 22.609,33.123C22.609,34.537 21.966,35.695 20.68,36.595C19.405,37.495 17.84,37.945 15.986,37.945ZM118.81,27.122L118.81,27.893L103.571,30.594C103.925,32.341 104.761,33.761 106.079,34.859C107.408,35.963 109.037,36.509 110.966,36.509C112.193,36.509 113.377,36.295 114.524,35.866C115.665,35.427 116.699,34.827 117.632,34.066L118.403,35.138C117.374,36.081 116.201,36.783 114.888,37.238C113.586,37.677 112.279,37.903 110.966,37.903C109.251,37.903 107.692,37.527 106.293,36.767C104.889,35.995 103.786,34.923 102.971,33.552C102.157,32.18 101.749,30.594 101.749,28.793C101.749,26.864 102.162,25.214 102.993,23.842C103.818,22.46 104.922,21.377 106.293,20.606C107.665,19.834 109.155,19.448 110.773,19.448C112.402,19.448 113.816,19.829 115.017,20.584C116.217,21.329 117.144,22.294 117.803,23.478C118.473,24.651 118.81,25.868 118.81,27.122ZM71.054,37.903C69.366,37.903 67.822,37.538 66.424,36.809C65.02,36.07 63.905,35.009 63.08,33.637C62.25,32.266 61.837,30.637 61.837,28.75C61.837,26.854 62.25,25.203 63.08,23.799C63.905,22.401 65.02,21.324 66.424,20.563C67.822,19.791 69.366,19.405 71.054,19.405C72.725,19.405 74.252,19.791 75.64,20.563C77.023,21.324 78.132,22.401 78.962,23.799C79.788,25.203 80.206,26.854 80.206,28.75C80.206,30.637 79.788,32.266 78.962,33.637C78.132,35.009 77.023,36.07 75.64,36.809C74.252,37.538 72.725,37.903 71.054,37.903ZM148.352,37.903C146.665,37.903 145.121,37.538 143.723,36.809C142.319,36.07 141.204,35.009 140.379,33.637C139.549,32.266 139.136,30.637 139.136,28.75C139.136,26.854 139.549,25.203 140.379,23.799C141.204,22.401 142.319,21.324 143.723,20.563C145.121,19.791 146.665,19.405 148.352,19.405C150.024,19.405 151.551,19.791 152.939,20.563C154.322,21.324 155.431,22.401 156.261,23.799C157.087,25.203 157.505,26.854 157.505,28.75C157.505,30.637 157.087,32.266 156.261,33.637C155.431,35.009 154.322,36.07 152.939,36.809C151.551,37.538 150.024,37.903 148.352,37.903ZM90.896,19.448C91.695,19.448 92.558,19.577 93.49,19.834C94.433,20.091 95.296,20.536 96.083,21.163C96.882,21.795 97.541,22.674 98.055,23.799C98.57,24.93 98.827,26.366 98.827,28.107L98.827,37.538L97.155,37.538L97.155,28.15C97.155,25.782 96.576,23.982 95.419,22.749C94.262,21.522 92.675,20.906 90.661,20.906C89.514,20.906 88.421,21.093 87.381,21.463C86.353,21.838 85.495,22.336 84.809,22.963L84.809,37.538L83.138,37.538L83.138,19.898L84.252,19.898L84.574,21.656C85.501,20.884 86.508,20.327 87.596,19.984C88.678,19.631 89.782,19.448 90.896,19.448ZM25.849,37.538L25.849,19.898L27.521,19.898L27.521,37.538L25.849,37.538ZM51.96,19.448C54.13,19.448 55.828,20.048 57.061,21.249C58.288,22.438 58.904,24.164 58.904,26.436L58.904,37.538L57.254,37.538L57.254,26.436C57.254,24.764 56.825,23.424 55.968,22.406C55.11,21.377 53.744,20.863 51.874,20.863C50.942,20.863 49.966,21.056 48.937,21.442C47.919,21.827 46.869,22.46 45.787,23.328L45.787,37.538L44.158,37.538L44.158,23.328C43.584,22.701 42.791,22.144 41.779,21.656C40.777,21.158 39.646,20.906 38.392,20.906C37.304,20.906 36.292,21.093 35.349,21.463C34.406,21.838 33.618,22.358 32.991,23.028L32.991,37.538L31.319,37.538L31.319,19.898L32.434,19.898L32.798,21.613C33.639,20.842 34.577,20.295 35.606,19.963C36.645,19.62 37.653,19.448 38.628,19.448C40.214,19.448 41.554,19.743 42.657,20.327C43.756,20.917 44.592,21.543 45.165,22.213C46.307,21.217 47.464,20.509 48.637,20.091C49.806,19.663 50.915,19.448 51.96,19.448ZM71.054,36.509C72.425,36.509 73.674,36.188 74.804,35.545C75.93,34.891 76.83,33.98 77.505,32.823C78.191,31.665 78.534,30.326 78.534,28.793C78.534,27.197 78.191,25.803 77.505,24.614C76.83,23.43 75.93,22.508 74.804,21.849C73.674,21.195 72.425,20.863 71.054,20.863C69.666,20.863 68.401,21.195 67.26,21.849C66.113,22.508 65.208,23.43 64.538,24.614C63.879,25.803 63.552,27.197 63.552,28.793C63.552,30.326 63.879,31.665 64.538,32.823C65.208,33.98 66.113,34.891 67.26,35.545C68.401,36.188 69.666,36.509 71.054,36.509ZM148.352,36.509C149.724,36.509 150.973,36.188 152.103,35.545C153.229,34.891 154.129,33.98 154.804,32.823C155.49,31.665 155.833,30.326 155.833,28.793C155.833,27.197 155.49,25.803 154.804,24.614C154.129,23.43 153.229,22.508 152.103,21.849C150.973,21.195 149.724,20.863 148.352,20.863C146.965,20.863 145.7,21.195 144.559,21.849C143.412,22.508 142.506,23.43 141.837,24.614C141.178,25.803 140.851,27.197 140.851,28.793C140.851,30.326 141.178,31.665 141.837,32.823C142.506,33.98 143.412,34.891 144.559,35.545C145.7,36.188 146.965,36.509 148.352,36.509ZM161.551,28.793C161.551,30.353 161.883,31.708 162.558,32.866C163.244,34.023 164.166,34.923 165.323,35.566C166.481,36.199 167.751,36.509 169.138,36.509C171.266,36.509 173.082,35.802 174.583,34.387L174.583,23.028C173.923,22.385 173.13,21.865 172.203,21.463C171.271,21.067 170.253,20.863 169.138,20.863C167.751,20.863 166.481,21.195 165.323,21.849C164.166,22.508 163.244,23.43 162.558,24.614C161.883,25.803 161.551,27.197 161.551,28.793ZM188.486,36.509C189.568,36.509 190.57,36.327 191.486,35.952C192.397,35.566 193.212,35.047 193.93,34.387L193.93,22.921C193.271,22.32 192.478,21.827 191.551,21.442C190.618,21.056 189.6,20.863 188.486,20.863C187.098,20.863 185.828,21.195 184.671,21.849C183.513,22.508 182.591,23.43 181.906,24.614C181.23,25.803 180.898,27.197 180.898,28.793C180.898,30.326 181.23,31.665 181.906,32.823C182.591,33.98 183.513,34.891 184.671,35.545C185.828,36.188 187.098,36.509 188.486,36.509ZM103.378,28.793L103.378,29.008L117.139,26.586C117.053,25.589 116.737,24.651 116.196,23.778C115.649,22.91 114.915,22.208 113.988,21.677C113.072,21.136 112,20.863 110.773,20.863C109.428,20.863 108.201,21.195 107.086,21.849C105.972,22.508 105.072,23.43 104.386,24.614C103.711,25.803 103.378,27.197 103.378,28.793ZM26.663,16.576C26.331,16.576 26.047,16.469 25.806,16.255C25.56,16.04 25.442,15.74 25.442,15.355C25.442,15.001 25.56,14.701 25.806,14.454C26.047,14.213 26.331,14.09 26.663,14.09C26.99,14.09 27.285,14.213 27.542,14.454C27.799,14.701 27.928,15.001 27.928,15.355C27.928,15.74 27.799,16.04 27.542,16.255C27.285,16.469 26.99,16.576 26.663,16.576Z" style="fill-rule:nonzero;"/>
    </g>
    <g transform="matrix(5.48919,0,0,5.48919,1045.48,185.379)">
        <path d="M-6.022,4.949L-7.224,2.793C-4.649,4.17 -1.719,4.63 1.458,4.271C4.651,3.906 7.719,2.979 10.667,1.479C13.719,-0.062 16.344,-2.042 18.542,-4.458C20.75,-6.885 22.482,-10.311 23.222,-13.176L24.294,-12.34C23.555,-9.757 21.563,-5.771 19.438,-3.312C17.313,-0.854 14.615,1.193 11.354,2.833C8.198,4.427 5.031,5.375 1.854,5.667C-1.313,5.969 -3.256,5.877 -6.022,4.949Z" style="fill-rule:nonzero;"/>
    </g>
</svg>