<svg xmlns="http://www.w3.org/2000/svg" xmlns:xlink="http://www.w3.org/1999/xlink" width="30.859" height="27.831" viewBox="0 0 30.859 27.831">
  <defs>
    <clipPath id="clip-path">
      <rect id="Rectangle_127" data-name="Rectangle 127" width="30.859" height="27.831" fill="none"/>
    </clipPath>
  </defs>
  <g id="Groupe_227" data-name="Groupe 227" transform="translate(-18.362)">
    <g id="Groupe_34" data-name="Groupe 34" transform="translate(18.362)">
      <g id="Groupe_33" data-name="Groupe 33">
        <g id="Groupe_32" data-name="Groupe 32" clip-path="url(#clip-path)">
          <path id="Tracé_75" data-name="Tracé 75" d="M296.828,87.716h0a3.037,3.037,0,0,1-3.037-3.037v-16.2a3.037,3.037,0,0,1,6.074,0v16.2a3.037,3.037,0,0,1-3.037,3.037" transform="translate(-269.006 -59.923)" fill="#e88873"/>
          <path id="Tracé_76" data-name="Tracé 76" d="M3.037,87.716h0A3.037,3.037,0,0,1,0,84.679v-16.2a3.037,3.037,0,0,1,6.074,0v16.2a3.037,3.037,0,0,1-3.037,3.037" transform="translate(0 -59.923)" fill="#e88873"/>
          <path id="Tracé_77" data-name="Tracé 77" d="M17.21,82.654h0a3.037,3.037,0,0,1-4.3,0L.889,70.628a3.037,3.037,0,1,1,4.3-4.3L17.21,78.359a3.037,3.037,0,0,1,0,4.3" transform="translate(0 -59.923)" fill="#ffe8d6"/>
          <path id="Tracé_78" data-name="Tracé 78" d="M164.263,128.374h0a3.037,3.037,0,0,1-4.3,0l-12.412-12.412a3.037,3.037,0,0,1,0-4.295h0a3.037,3.037,0,0,1,4.295,0l12.412,12.412a3.037,3.037,0,0,1,0,4.3" transform="translate(-134.293 -101.432)" fill="#b1fcff"/>
          <path id="Tracé_79" data-name="Tracé 79" d="M159.694,2.761A2.76,2.76,0,1,1,156.934,0a2.76,2.76,0,0,1,2.76,2.761" transform="translate(-141.167)" fill="#e88873"/>
        </g>
      </g>
    </g>
  </g>
</svg>
